<?xml version="1.0" standalone="no"?>
<!DOCTYPE svg PUBLIC "-//W3C//DTD SVG 20010904//EN"
 "http://www.w3.org/TR/2001/REC-SVG-20010904/DTD/svg10.dtd">
<svg version="1.0" xmlns="http://www.w3.org/2000/svg"
 width="310.000000pt" height="312.000000pt" viewBox="0 0 310.000000 312.000000"
 preserveAspectRatio="xMidYMid meet">

<g transform="translate(0.000000,312.000000) scale(0.100000,-0.100000)"
fill="#444444" stroke="none">
<path d="M0 1560 l0 -1560 1550 0 1550 0 0 1560 0 1560 -1550 0 -1550 0 0
-1560z m2101 1291 l29 -29 0 -377 0 -377 -29 -29 c-28 -28 -33 -29 -125 -29
l-96 0 -1 -162 c-1 -278 13 -268 -369 -268 -357 0 -347 -4 -352 165 l-3 80
-91 3 c-84 2 -94 5 -118 29 l-26 26 0 378 0 378 24 28 24 28 226 3 226 3 0 64
c0 58 2 65 31 89 l31 26 295 0 295 0 29 -29z m-907 -1407 c3 -9 6 -47 6 -85 0
-66 1 -69 19 -59 52 27 132 -6 157 -65 20 -49 17 -95 -9 -145 -38 -72 -127
-101 -197 -65 l-30 16 0 179 c0 173 -1 180 -20 180 -29 0 -24 27 8 44 35 20
58 20 66 0z m320 0 c3 -9 6 -99 6 -201 0 -167 2 -185 16 -179 9 4 22 2 29 -4
24 -20 45 16 97 163 53 153 53 155 13 171 -6 2 -6 8 1 15 7 7 32 11 64 9 l54
-3 58 -170 c33 -93 68 -179 79 -191 10 -11 16 -24 12 -27 -3 -4 -35 -7 -70 -7
-65 0 -79 11 -46 35 16 12 16 17 2 61 l-15 49 -61 3 -60 3 -12 -43 c-7 -24
-11 -57 -9 -73 l3 -30 -67 0 c-37 -1 -70 -4 -74 -8 -11 -11 -49 -8 -62 5 -8 8
-12 66 -12 195 0 176 -1 183 -20 183 -29 0 -24 27 8 44 35 20 58 20 66 0z
m-843 -22 l129 3 0 -52 c0 -57 -13 -68 -32 -28 -12 26 -47 41 -73 31 -12 -4
-15 -31 -15 -155 0 -149 0 -151 25 -167 14 -9 22 -20 19 -25 -7 -12 -134 -12
-134 0 0 5 7 25 15 45 12 28 15 68 13 169 l-3 132 -35 0 c-27 0 -37 -6 -47
-25 -19 -39 -38 -31 -41 19 -5 61 2 75 29 60 14 -7 66 -10 150 -7z m320 -118
l44 -6 -4 -120 c-3 -119 -3 -121 18 -115 31 8 38 -13 11 -35 -30 -24 -67 -23
-80 2 l-11 21 -26 -21 c-51 -40 -122 -18 -149 46 -32 77 -8 169 55 211 35 24
66 27 142 17z m1199 -9 c83 -43 85 -200 4 -264 -44 -35 -124 -25 -124 15 0 9
11 11 34 7 44 -7 72 20 81 80 13 87 -38 147 -101 118 -24 -11 -24 -11 -24
-170 0 -142 2 -161 17 -170 27 -14 8 -25 -45 -25 -37 -1 -46 2 -42 14 3 8 6
86 8 173 3 153 2 159 -19 176 l-22 18 24 16 c26 19 79 23 79 6 0 -5 10 -3 22
5 28 20 71 20 108 1z m319 1 c83 -43 91 -178 16 -253 -35 -35 -77 -43 -116
-23 -18 10 -19 7 -19 -49 0 -44 4 -60 16 -65 29 -11 3 -26 -46 -26 -47 0 -71
12 -50 25 6 4 10 69 10 167 0 138 -2 162 -17 173 -9 7 -14 19 -10 27 6 17 78
32 87 19 3 -5 16 -3 30 4 33 18 64 18 99 1z m-379 -506 c149 -21 265 -43 274
-51 6 -6 6 -12 0 -18 -5 -6 -45 -3 -105 9 -157 31 -312 44 -524 44 -305 -1
-529 -26 -798 -91 -126 -30 -147 -38 -135 -49 11 -11 25 -12 71 -4 67 13 187
9 187 -5 1 -5 -28 -14 -62 -19 -35 -4 -64 -9 -65 -10 -2 -2 -16 -72 -33 -156
-27 -141 -41 -177 -62 -164 -13 8 -9 44 17 174 14 68 25 127 25 132 0 5 -26 6
-60 2 -60 -7 -60 -7 -60 20 0 24 -3 26 -27 20 -16 -4 -43 -13 -62 -20 -42 -17
-74 -18 -69 -1 13 37 415 143 673 177 231 30 639 35 815 10z m-724 -197 c-3
-38 -9 -81 -13 -98 -6 -27 -5 -29 10 -16 32 26 49 6 46 -52 -2 -28 0 -58 5
-65 9 -16 -22 -55 -36 -46 -6 4 -7 32 -3 70 4 35 4 64 1 64 -2 0 -15 -18 -27
-40 -13 -22 -29 -40 -37 -40 -15 0 -14 42 4 158 6 37 4 42 -10 36 -25 -10 -51
-142 -33 -171 13 -20 -11 -63 -34 -63 -21 0 -22 2 -15 100 6 87 5 100 -9 100
-8 0 -15 7 -15 15 0 8 9 15 20 15 13 0 22 9 26 28 10 47 13 52 29 52 9 0 15
-9 15 -25 0 -14 4 -25 9 -25 16 0 41 31 41 51 0 11 7 19 16 19 15 0 16 -9 10
-67z m186 37 c2 -7 22 -7 60 0 68 13 193 9 193 -5 0 -5 -30 -14 -66 -18 l-66
-9 -31 -156 c-18 -85 -35 -159 -39 -163 -5 -5 -15 -4 -23 1 -12 8 -11 28 13
148 15 76 27 144 27 151 0 9 -15 10 -60 5 -59 -6 -60 -6 -60 18 0 14 3 28 7
31 10 11 41 8 45 -3z m472 -9 c3 -4 -4 -55 -15 -111 -13 -71 -16 -106 -9 -110
14 -9 -3 -55 -24 -63 -35 -14 -38 18 -15 140 12 65 26 126 31 136 9 18 24 22
32 8z m-127 -48 c-3 -27 -9 -59 -13 -73 -7 -22 -6 -24 9 -12 9 8 21 11 27 7
17 -11 11 -88 -10 -122 -19 -33 -50 -45 -50 -20 0 8 -3 8 -9 -2 -5 -8 -16 -11
-25 -8 -17 7 -17 7 10 142 8 39 14 79 14 91 0 23 18 44 38 44 11 0 13 -10 9
-47z m-803 -74 c14 -17 17 -32 12 -65 -3 -24 -4 -44 -1 -44 3 0 16 23 30 50
25 49 38 60 50 40 5 -8 -9 -109 -21 -147 -4 -16 -34 -5 -34 13 0 17 -12 18
-27 3 -23 -23 -36 2 -30 62 4 45 2 59 -8 59 -16 0 -51 -53 -60 -92 -9 -34 -32
-55 -46 -41 -11 11 5 141 20 156 7 7 15 6 26 -3 13 -11 18 -10 31 8 19 28 35
28 58 1z m1109 9 c6 -19 -3 -38 -19 -38 -26 0 -14 -19 14 -22 60 -7 29 -93
-50 -134 -27 -14 -58 -10 -58 8 0 5 -4 6 -10 3 -5 -3 -19 -1 -30 5 -38 20 -18
145 27 168 47 24 58 -24 18 -78 -31 -42 -33 -64 -5 -56 11 3 30 9 42 12 17 5
20 3 14 -12 -6 -15 -2 -13 19 6 27 26 30 54 5 56 -8 1 -21 2 -27 3 -19 2 -16
17 10 56 23 36 42 44 50 23z m-408 -39 c4 -5 4 -37 0 -70 -5 -41 -11 -59 -21
-59 -8 0 -17 6 -20 14 -3 8 -14 11 -28 9 -32 -6 -40 10 -26 52 17 51 76 85 95
54z"/>
<path d="M1487 2813 c-4 -3 -7 -84 -7 -180 l0 -173 80 0 80 0 0 85 c0 47 -2
85 -5 85 -4 0 -19 -7 -34 -15 -26 -13 -30 -13 -42 2 -12 14 -11 18 5 27 11 6
39 28 63 50 66 60 73 50 73 -102 l0 -129 52 -5 c36 -4 56 -1 66 8 9 10 39 14
96 14 88 0 124 -14 113 -44 -5 -13 -21 -16 -87 -16 l-80 0 6 -27 c10 -43 11
-43 78 -43 67 0 94 -15 82 -45 -4 -11 -22 -15 -76 -15 l-70 0 0 -35 0 -35 64
0 c67 0 94 -15 82 -45 -4 -11 -22 -15 -74 -15 -69 0 -70 0 -75 -30 -12 -55 -4
-60 93 -60 49 0 91 4 94 9 9 14 11 715 3 729 -6 9 -76 12 -291 12 -155 0 -286
-3 -289 -7z m538 -108 c0 -19 -8 -20 -107 -23 l-108 -3 0 26 0 26 108 -3 c99
-3 107 -4 107 -23z m-10 -109 c11 -8 16 -19 12 -30 -6 -14 -21 -16 -109 -14
-91 3 -103 5 -106 22 -2 10 2 22 10 27 22 14 172 11 193 -5z"/>
<path d="M992 2628 c-9 -9 -12 -105 -12 -370 0 -413 -9 -381 108 -376 l67 3 0
45 0 45 -55 5 c-47 4 -55 8 -55 25 0 17 8 21 55 25 l55 5 0 35 0 35 -55 5
c-47 4 -55 8 -55 25 0 17 8 21 55 25 l55 5 3 37 c3 33 0 37 -26 43 -16 3 -40
17 -53 31 -21 22 -25 38 -27 108 -6 122 23 166 109 166 33 0 89 -47 89 -74 0
-13 14 -16 85 -16 69 0 85 3 85 15 0 11 -11 15 -42 15 -52 0 -71 11 -66 36 2
15 14 20 56 22 l52 3 0 45 0 44 -208 0 c-148 0 -211 -3 -220 -12z"/>
<path d="M1120 2481 c-5 -11 -10 -50 -10 -86 0 -71 12 -105 35 -105 11 0 15
13 15 54 0 38 6 60 20 79 16 20 18 31 10 51 -12 32 -54 36 -70 7z"/>
<path d="M1231 2386 c-17 -20 -16 -712 0 -732 9 -11 64 -14 285 -14 271 0 273
0 288 22 14 19 16 70 16 358 0 288 -2 339 -16 358 -15 22 -17 22 -288 22 -222
0 -276 -3 -285 -14z m218 -97 c31 -29 41 -61 41 -134 0 -73 -10 -105 -41 -134
-25 -23 -77 -28 -111 -10 -64 34 -65 251 -1 288 31 18 87 13 112 -10z m305 15
c9 -3 16 -14 16 -24 0 -25 -19 -30 -121 -30 -93 0 -110 8 -95 45 4 12 25 15
95 15 49 0 96 -3 105 -6z m0 -130 c9 -3 16 -14 16 -24 0 -25 -19 -30 -121 -30
-93 0 -110 8 -95 45 4 12 25 15 95 15 49 0 96 -3 105 -6z m14 -148 c6 -29 -16
-36 -116 -36 -96 0 -113 8 -98 45 5 13 23 15 108 13 91 -3 103 -5 106 -22z
m-2 -121 c4 -8 1 -22 -6 -30 -18 -22 -452 -22 -470 0 -7 8 -10 22 -6 30 8 23
474 23 482 0z m0 -130 c4 -8 0 -22 -7 -31 -12 -14 -41 -16 -236 -12 -226 4
-252 9 -240 42 6 14 37 16 242 16 201 0 236 -2 241 -15z"/>
<path d="M1359 2233 c-13 -34 -7 -159 8 -174 20 -20 52 0 59 37 10 52 0 144
-17 155 -24 15 -39 10 -50 -18z"/>
<path d="M1202 1160 l3 -105 32 -3 c58 -6 94 61 79 144 -10 50 -38 75 -82 72
l-35 -2 3 -106z"/>
<path d="M1746 1320 c-9 -24 -36 -102 -36 -106 0 -2 18 -4 40 -4 46 0 46 3 20
75 -11 32 -20 45 -24 35z"/>
<path d="M875 1245 c-21 -20 -25 -34 -25 -82 0 -94 45 -132 98 -83 19 18 22
31 22 99 0 63 -3 80 -16 85 -30 12 -55 6 -79 -19z"/>
<path d="M2403 1253 c-9 -3 -13 -33 -13 -102 l0 -97 30 -2 c44 -3 68 13 81 57
28 93 -27 173 -98 144z"/>
<path d="M1922 429 c-26 -53 -27 -60 -7 -53 15 6 39 67 33 86 -3 7 -14 -8 -26
-33z"/>
<path d="M1780 425 c-7 -9 -10 -18 -7 -21 3 -3 10 4 17 15 13 25 8 27 -10 6z"/>
</g>
</svg>
